<?xml version="1.0" encoding="utf-8"?>
<!-- Generator: Adobe Illustrator 22.1.0, SVG Export Plug-In . SVG Version: 6.00 Build 0)  -->
<svg version="1.1" id="Layer_1" xmlns="http://www.w3.org/2000/svg" xmlns:xlink="http://www.w3.org/1999/xlink" x="0px" y="0px"
	 viewBox="0 0 1437.4 436.8" style="enable-background:new 0 0 1437.4 436.8;" xml:space="preserve">
<style type="text/css">
	.st0{enable-background:new    ;}
	.st1{fill:#EDDF2C;}
</style>
<title>About</title>
<desc>Created with Sketch.</desc>
<g id="Page-1">
	<g id="Desktop-HD-Copy-5" transform="translate(0.000000, -1766.000000)">
		<g class="st0">
			<path class="st1" d="M35.8,2122.4l-1-6.7c-0.3-2.1,2.3-14.7,5.9-20.2c1-2.1,19.1-24.6,31-36.7c19.4-19.9,33.4-36,52-54.3
				c14.7-14.5,30.3-28.5,45.5-42.2c-19.7,3.4-38.8,6.7-55.9,10.6c-11.9,2.8-24.8,3.6-31.8,8.3c-10.9,7-18.6,11.6-29.2,12.2
				c-4.4,0.3-13.5-0.3-19.9-1.8c-6.2-1.6-13.5-5.4-16.8-7c-2.8-1.6-8.3-7.8-6.5-14.5c1.8-7,9.3-14.5,14.2-15.5
				c13.2-2.6,16.8-5.7,29.7-8.3c15.5-3.1,52.8-0.3,71.7-4.1c22.8-4.4,47.3-6.7,77.6-8.5l10.1-8.5c24.8-22.2,49.1-44,76.6-66.5
				c21.2-17.6,43.5-32.1,67-50.2c10.9-8,32.3-21.2,51.5-30c10.9-5.2,33.9-11.9,41.4-11.6c6.2,0.3,12.2,2.6,17.3,5.7
				c6.7,3.9,12.4,11.6,13.2,19.9s-4.9,32.1-9.6,46.8c-7.2,23-22.2,55.9-36,84.8c12.2-0.3,23.3,0,32.1,0.5c12.2,1,39.6,0.8,47.6,4.4
				c2.8,1,6.5,3.9,6.7,5.2c1.6,7.8-11.4,1.8-18.9,0.5c-12.4-1.8-42.4-0.5-73.2,1.6c-9.6,20.4-17.6,38-19.9,46.3
				c-3.6,10.6-7.2,22.2-10.1,30c-11.9,34.1-16.3,38.8-19.1,58.5c0,1.6-8.8,27.4-10.9,35.7c-2.6,11.9-4.4,32.9-6.2,39.3
				c-4.7,15.5-4.4,27.4-4.1,33.6c0,0.8,0,3.6,1,6.5c1.3,4.4,2.8,8.8-2.1,8.3c-4.7-0.8-7.2-10.1-8.3-16.6c-0.5-2.3-1.8-13.7-0.5-31.3
				c0.8-12.4,3.9-26.6,5.4-37.2c2.3-15.5,6.2-36.2,8.5-47.9c3.1-14.5,8.3-52.5,17.6-85.6l11.4-37.2c-6.5,0.5-12.4,0.8-18.1,1
				c-23.3,1-50.4,3.6-74.8,6.2c-28.5,2.8-63.1,7.2-95.4,11.6l-14.5,14c-6.5,7-15,15.5-22,23c-8,9.3-15.3,17.3-24.3,27.4
				c-10.9,13.5-14.5,19.9-23.5,35.7c-5.2,9.1-17.3,26.1-17.1,32.9c0.3,9.3-8,20.7-10.6,27.2c-3.6,8.3-20.2,13.5-25.1,14.5
				C58.8,2133.2,37.1,2129.3,35.8,2122.4z M395.1,1925.3l9.3-28.7c5.9-16.6,12.7-33.6,16-49.1c1.8-11.6,6.5-32.9,4.9-39.1
				c-1-6.7-7-8.8-15.8-8c-7.2,0.3-15.5,3.4-27.4,9.1c-10.1,4.9-22.5,11.6-37,23.3c-18.4,14-35.2,28.2-50.7,41.6
				c-19.4,16.6-36.7,32.6-52.3,46.8c-4.4,3.9-8.3,7.5-12.4,10.9c7.2-0.3,14.5-0.5,22.2-1c37.8-2.1,76-3.6,110.2-4.4
				C372.3,1926.3,383.7,1925.8,395.1,1925.3z"/>
			<path class="st1" d="M474.8,2061.1c-1.6-10.1,5.7-25.1,8-27.2l1.8-2.3c-6.2-1.8-10.1-9.8-9.6-16.6c1.6-11.9,2.6-19.7,7.8-31.6
				c2.1-5.2,4.9-10.9,9.1-18.1c5.2-9.3,7.8-14.2,12.4-21.5c3.6-5.4,8.5-12.4,16.8-24.1c4.7-7,15.8-23,27.2-38.5
				c10.9-15,22-29.7,27.4-36.2c3.4-4.4,10.3-16,17.3-26.9c4.9-7.5,9.6-14.7,12.9-18.6c5.9-5.7,18.1-11.6,25.6-12.7
				c9.1-1,16.8,4.7,20.4,7.2c6.2,4.4,4.9,15.3,1.6,17.3c-1,1-6.2,9.3-15.5,11.4c-5.2,1.6-11.6,6.7-18.4,13.5
				c-5.4,5.4-11.4,12.2-17.6,18.4c-8.8,9.1-17.1,20.2-24.3,31.8c-5.7,9.1-11.1,18.1-15.8,26.4c-5.2,9.3-9.8,17.6-14,23.8
				c-2.6,4.1-6.7,10.9-9.3,16.3c-1.8,3.9-1.3,12.4,5.7,10.6c4.1-1,10.3-4.7,11.9-5.7c12.4-8.5,26.9-15.3,41.4-23.5
				c8.5-5.2,18.9-11.4,28.2-15.3c17.6-7.5,33.1-10.1,42.2-11.6c5.4-0.8,10.6,0.8,14.7,1.8c10.3,3.1,18.6,14.7,17.3,24.6
				c-0.3,5.4-6.2,24.8-18.4,36.5c-8,8-16,19.7-26.9,28.2c-25.1,19.1-34.9,31.3-62.1,46.3c-13.2,6.2-27.9,13.2-41.6,21
				c-22,12.9-53,11.4-56.6,10.9C488.5,2075.8,476.1,2071.7,474.8,2061.1z M493.6,2031.1c-1.3,1.6-2.3,3.1-2.6,3.9
				c-1.3,4.7-2.3,12.4,0.3,15.3c2.1,2.8,1.6,3.1,9.3,1c6.2-1.8,17.8-6.5,32.1-13.2c22-11.1,43.2-26.4,55.9-34.4
				c14.2-9.1,23.8-17.8,30.8-23c18.9-14.5,21-24.1,26.1-33.9c1.3-2.3,7-10.6,3.4-11.9c-1.8-0.5-4.7-1.3-8.5-0.8
				c-7.2,1.8-25.6,3.6-41.9,14c-15.5,9.8-27.7,14.7-46.3,28.2c-12.7,9.8-13.5,10.3-23.5,20.7c-4.4,4.7-9.1,8.5-11.6,13.2
				c-6.7,10.6-9.6,11.9-10.3,13.7C504.3,2026.9,498.8,2029.5,493.6,2031.1z"/>
			<path class="st1" d="M793.7,1932c1.6-1.3,2.8-2.6,4.9-4.1c10.3-6.2,23.8-13.2,27.4-14.5c8.3-3.1,19.4-5.9,29.2-5.9
				c6.2,0,12.7,1,17.8,2.3c6.5,1.6,11.9,5.9,15.3,10.3c2.6,4.1,6.7,11.9,6.2,17.8c-1.3,9.8-4.4,14.5-12.9,27.7
				c-5.2,7.5-13.5,16.3-20.4,23.8c-11.9,12.4-25.6,24.6-40.9,36c-8.3,6.5-17.3,12.7-26.1,18.4c-7.5,4.9-15,9.3-22.2,13.2
				c-14.7,7.8-29,14-41.4,17.6c-7,2.1-13.7,3.1-19.4,3.1c-7.2,0-16.8-1-23-4.1c-3.4-2.1-7.8-4.7-10.9-8.3c-3.1-4.1-4.9-9.8-4.9-14
				c0-6.7,1.8-14.5,4.9-22.2c2.3-5.9,5.4-11.9,8.8-17.8c7-11.4,15.5-22.5,23.5-32.1c5.9-6.7,24.3-21.7,40.4-32.6
				c14-9.6,24.3-13.2,36.2-14.5C789.1,1931.7,791.6,1931.7,793.7,1932z M801.2,1942.1c1.6,1.8,3.1,3.9,2.6,6.2
				c-2.1,8,0.3,15.5-9.6,19.4c-5.7,2.6-6.2,2.8-13.2,4.7c-4.7,1-14.7,0.8-20.2,3.4c-8.3,4.4-19.7,17.3-25.9,24.3
				c-4.9,6.2-8.8,12.2-11.6,18.4c-1.8,5.2-3.4,9.3-3.6,15c-0.3,4.7-0.3,6.5,3.9,9.3c3.6,2.8,5.9,2.6,13.5,2.6
				c9.6,0,22.8-0.5,41.1-10.1c8.5-4.7,17.8-9.1,32.1-19.7c4.9-4.1,8.3-6.5,12.2-10.1c3.4-3.1,7.8-8.8,11.4-12.4
				c9.8-10.6,10.9-10.9,15.8-23.8c1.3-3.6,4.9-14.5,5.2-19.1c0.5-7.2-1.3-11.1-4.1-14.2c-2.8-2.8-6.2-5.9-13.7-5.9
				c-9.8,0-12.2-1.6-23,3.4C808.7,1935.3,805.1,1938.7,801.2,1942.1z"/>
			<path class="st1" d="M1086.8,1911.8c3.1,0,15,4.4,14.5,9.1c-0.3,3.4,3.4,12.9-2.1,18.6c-4.4,4.7-12.9,13.5-17.6,21.2
				c-8.3,13.7-14.7,45.5-12.4,57.7c0.8,2.8,1.3,13.5,7,15c1.6,0.5,8.3-1.3,10.1-1.6c3.9-0.5,27.9-9.8,41.1-19.4
				c5.7-4.1,24.3-17.8,38.5-27.7c4.9-3.4,11.9-6.5,15.3-7.8c2.8-0.8,5.7-0.8,6.7,1.3c0.8,1,2.6,4.7,1,7.2c-1.3,2.6-5.7,7.5-9.1,8.8
				c-4.1,1-11.4,3.1-20.2,8.5l-27.7,17.8c-8.8,5.2-28.7,21.5-36.7,27.2c-12.2,8.5-22.2,17.1-39.8,21.2c-3.6,0.8-9.3,0.5-14.7-2.3
				c-5.2-2.8-9.6-7.8-10.3-10.6c-0.8-2.1-2.6-7.8-2.1-12.9c1.3-6.7,1.3-12.9,2.8-21c3.9-16,3.6-21.5,13.7-48.6
				c-2.6-1.3-6.7-1-16.8,4.4c-13.7,7.5-27.2,17.1-41.6,28.2c-7,5.4-10.9,10.3-17.3,15.5c-8.8,7.2-16.8,15.5-25.6,23.3
				c-10.1,9.1-21.5,17.1-32.8,24.8c-5.7,3.9-8.8,4.7-13.2,5.4c-7.2,0.5-17.1-3.6-21.5-8.5c-3.9-4.4-4.7-8-4.7-13.5
				c0-8.8,1.6-18.6,6.5-28.7c6.5-13.2,15.3-26.4,24.3-39.1c4.4-6.5,5.4-8.3,9.6-14c10.1-12.9,19.1-23.3,23.3-27.9
				c1.6-1.8,9.6-17.1,18.9-21c11.9-4.9,19.4-1.6,22.8,0.3c4.1,2.1,12.7,18.9,4.9,25.1c-3.6,3.4-7.8,11.4-12.7,15.3
				c-5.9,4.7-13.5,5.4-18.4,10.6c-9.6,10.1-13.5,15.3-19.9,24.1c-10.3,14.7-12.4,24.1-12.7,27.4c-0.5,3.6,0.3,5.7,6.7,6.2
				c2.6,0.3,10.1-3.4,29-15.5c15.8-10.3,31-22.5,47.1-35.2c13.5-11.1,27.9-22,38.5-32.9c9.1-9.1,15.8-17.1,19.9-22.2
				C1066.1,1917.2,1078.2,1912.1,1086.8,1911.8z"/>
			<path class="st1" d="M1139.3,2032.9c2.3-8.8,11.1-24.8,17.3-35.2c11.6-19.4,23-40.1,32.6-54.1c14.5-22.2,32.9-43.7,48.6-65.7
				c-10.6,2.3-18.4,4.7-23.8,6.5c-7.2,2.6-33.1,9.1-38.5,10.6c-4.7,1.6-22.8-0.3-25.9-1.3c-4.9-2.6-4.4-13.5-0.8-17.3
				c1.8-1.6,11.6-16.8,22.8-18.6c9.1-1.6,18.6,1.6,33.1,0.8c16-0.8,34.1-1.3,50.4-2.6c6.5-7,12.9-13.5,18.4-19.9
				c5.2-6.5,8.8-12.7,9.6-15c0.5-2.3,3.4-9.8,11.4-14c4.4-2.6,21.5-5.9,28.2-1.8c2.6,1.6,4.9,12.2,4.9,15.8c0,4.9-1.8,8.8-5.4,12.7
				c-5.4,6-14.7,10.9-20.7,14.5c-1.3,0.8-3.1,2.3-5.4,4.1c21-1.6,45.5-2.6,68.3-2.8c24.1,0,48.4,2.3,54.3,2.6
				c9.6,0.5,12.4,3.9,8.8,5.4c-8.3,3.9-5.4,1-17.3,2.6c-2.8,0.3-25.1-0.5-39.1-0.3c-12.9,0.3-27.2,2.3-38.8,3.1
				c-14,0.8-24.3,4.1-29.7,5.4c-7.5,1.8-16.6,2.8-24.3,3.6c-8.5,9.6-18.6,19.9-26.9,31.8c-16,22.5-24.1,37.8-35.7,56.1
				c-6.5,9.3-15,29.2-20.4,39.6c-5.2,10.6-9.8,22.8-9.8,29c0,3.9,0.8,6.2,3.1,7.2c3.1,1.3,7.8,0.8,10.9,0
				c8.8-1.8,25.1-7.8,40.6-15.3c14.7-7.2,34.9-13.5,48.1-20.2c7.5-3.6,28.2-9.3,33.4-12.2c1.8-1,5.9,1.6,6.5,2.8
				c0.3,1-0.3,5.7-2.1,6.7c-4.4,2.1-8.5,1-13.7,2.6c-11.9,3.9-30,13.5-45.3,21.7c-26.1,14-32.6,18.6-51.5,29.5
				c-3.4,2.1-22.5,11.9-29.5,16.6c-6.7,4.1-14,5.7-16,6.5c-4.7,1.6-15.8-0.5-22-4.1c-5.7-3.4-10.3-7.5-11.4-15.3
				C1134.9,2043.7,1137.2,2042.2,1139.3,2032.9z"/>
		</g>
	</g>
</g>
</svg>
