<?xml version="1.0" encoding="UTF-8"?>
<svg width="35px" height="35px" viewBox="0 0 35 35" version="1.1" xmlns="http://www.w3.org/2000/svg" xmlns:xlink="http://www.w3.org/1999/xlink">
    <!-- Generator: Sketch 51 (57462) - http://www.bohemiancoding.com/sketch -->
    <title>noun_Close_1840513</title>
    <desc>Created with Sketch.</desc>
    <defs></defs>
    <g id="Page-1" stroke="none" stroke-width="1" fill="none" fill-rule="evenodd">
        <g id="Desktop-HD-Copy" transform="translate(-563.000000, -2595.000000)" fill="#000000">
            <g id="noun_Close_1840513" transform="translate(563.000000, 2595.000000)">
                <path d="M0,3.21428571 C1.07142857,2.14285714 2.14285714,1.07142857 3.21428571,0 C7.99107143,4.77678571 12.7678571,9.50892857 17.5,14.2857143 C22.2767857,9.50892857 27.0535714,4.77678571 31.7857143,0 C32.8571429,1.07142857 33.9285714,2.14285714 35,3.21428571 C30.2678571,7.99107143 25.4910714,12.7678571 20.7589286,17.5 C25.4910714,22.2767857 30.2678571,27.0535714 35,31.7857143 C33.9285714,32.8571429 32.8571429,33.9285714 31.7857143,35 C27.0535714,30.2678571 22.2767857,25.4910714 17.5,20.7589286 C12.7678571,25.4910714 7.99107143,30.2678571 3.21428571,35 C2.14285714,33.9285714 1.07142857,32.8571429 0,31.7857143 C4.77678571,27.0535714 9.55357143,22.2767857 14.2857143,17.5 C9.55357143,12.7678571 4.77678571,7.99107143 0,3.21428571 Z" id="Shape"></path>
            </g>
        </g>
    </g>
</svg>