<?xml version="1.0" encoding="UTF-8"?>
<svg width="1381px" height="396px" viewBox="0 0 1381 396" version="1.1" xmlns="http://www.w3.org/2000/svg" xmlns:xlink="http://www.w3.org/1999/xlink">
    <!-- Generator: Sketch 50.2 (55047) - http://www.bohemiancoding.com/sketch -->
    <title>hero_logo_large</title>
    <desc>Created with Sketch.</desc>
    <defs></defs>
    <g id="Page-1" stroke="none" stroke-width="1" fill="none" fill-rule="evenodd">
        <g id="Desktop-HD" transform="translate(-30.000000, -358.000000)" fill="#F8E71C">
            <g id="hero_logo_large" transform="translate(30.000000, 358.000000)">
                <path d="M181.303317,44.9415121 L87.5346962,44.9415121 L82.8592525,66.9015692 L168.315974,66.9015692 L159.224833,111.843081 L73.7681119,111.843081 L69.0926682,134.058488 L165.458758,134.058488 L156.367618,179 L0,179 L36.3645622,0 L190.394458,0 L181.303317,44.9415121 Z M373.985294,0 L437.883025,0 L402.55745,179 L349.828835,179 L369.050103,81.2011412 L316.581235,161.636234 L277.359457,161.636234 L256.839454,80.9457917 L237.358439,179 L184.629824,179 L219.955398,0 L283.853129,0 L310.607057,93.4579173 L373.985294,0 Z M529.523468,0 L493.158906,179 L432.897631,179 L469.262193,0 L529.523468,0 Z M593.890489,129.717546 L669.736576,129.717546 L659.606448,179 L523.499086,179 L559.863649,0 L620.124923,0 L593.890489,129.717546 Z M853,0 L767.023785,123.844508 L757.672898,179 L697.411623,179 L706.502764,124.610556 L661.047061,0 L721.048589,0 L745.984288,68.9443652 L792.998472,0 L853,0 Z" id="Emily-Copy-2" style="mix-blend-mode: multiply;"></path>
                <path d="M513.868207,205 C527.598517,205 541.071181,208.087629 554.286604,214.262978 C567.502028,220.438328 578.314484,228.657508 586.724299,238.920765 L547.850554,280.40847 C543.216574,272.928469 537.424187,266.883675 530.473217,262.273907 C523.522248,257.664139 516.528476,255.35929 509.491693,255.35929 C501.768393,255.35929 494.731715,257.4467 488.381447,261.621585 C482.031179,265.796469 476.968203,271.580336 473.192368,278.973361 C469.416532,286.366385 467.528643,294.585565 467.528643,303.631148 C467.528643,315.112079 470.617916,324.548916 476.796556,331.94194 C482.975195,339.334964 490.955818,343.031421 500.738664,343.031421 C507.260561,343.031421 514.468866,341.074473 522.363794,337.160519 C530.258722,333.246565 537.467026,328.071526 543.988924,321.635246 L574.624524,358.948087 C563.468647,370.255066 550.467955,379.257025 535.622058,385.954235 C520.77616,392.651445 506.402458,396 492.500519,396 C475.509261,396 460.449053,392.260056 447.319444,384.780055 C434.189836,377.300054 424.020978,366.949975 416.812565,353.729508 C409.604152,340.509041 406,325.549264 406,308.849727 C406,289.366934 410.76263,271.710917 420.288032,255.881148 C429.813435,240.051378 442.814127,227.613889 459.290498,218.568306 C475.76687,209.522723 493.959258,205 513.868207,205 Z M658.451108,341.465847 L733.624178,341.465847 L723.583939,391.825137 L588.68432,391.825137 L624.726203,208.913934 L684.452752,208.913934 L658.451108,341.465847 Z M885.46954,391.825137 L880.835583,365.993169 L813.128332,365.993169 L799.483904,391.825137 L738.727587,391.825137 L844.7937,208.913934 L906.064901,208.913934 L949.572603,391.825137 L885.46954,391.825137 Z M835.783229,322.678962 L873.369765,322.678962 L863.84441,269.449454 L835.783229,322.678962 Z M1157.48624,261.621585 C1157.48624,277.799261 1153.925,292.063235 1146.8024,304.413934 C1139.6798,316.764634 1129.42513,326.331933 1116.03808,333.11612 L1139.72274,391.825137 L1072.27293,391.825137 L1059.91571,344.336066 L1037.51826,344.336066 L1028.25035,391.825137 L968.523797,391.825137 L1004.56568,208.913934 L1091.83853,208.913934 C1112.94888,208.913934 1129.16756,213.480146 1140.49507,222.612705 C1151.82257,231.745264 1157.48624,244.748094 1157.48624,261.621585 Z M1046.78617,298.412568 L1074.33247,298.412568 C1082.05577,298.412568 1088.19141,295.933768 1092.73957,290.976093 C1097.28774,286.018418 1099.56179,279.451771 1099.56179,271.275956 C1099.56179,266.057351 1098.10296,262.012992 1095.18527,259.14276 C1092.26758,256.272527 1088.14855,254.837432 1082.82805,254.837432 L1055.28176,254.837432 L1046.78617,298.412568 Z M1381,208.913934 L1301.19297,284.844262 L1346.76021,391.825137 L1277.50831,391.825137 L1252.79387,330.506831 L1229.10921,353.20765 L1221.38595,391.825137 L1161.6594,391.825137 L1197.70128,208.913934 L1257.42783,208.913934 L1244.29829,275.45082 L1309.946,208.913934 L1381,208.913934 Z" id="Clark-Copy-2" style="mix-blend-mode: multiply;"></path>
            </g>
        </g>
    </g>
</svg>