<?xml version="1.0" encoding="utf-8"?>
<!-- Generator: Adobe Illustrator 22.1.0, SVG Export Plug-In . SVG Version: 6.00 Build 0)  -->
<svg version="1.1" id="Layer_1" xmlns="http://www.w3.org/2000/svg" xmlns:xlink="http://www.w3.org/1999/xlink" x="0px" y="0px"
	 viewBox="0 0 2012 889" style="enable-background:new 0 0 2012 889;" xml:space="preserve">
<style type="text/css">
	.st0{fill:#F8E71C;}
</style>
<g>
	<path class="st0" d="M829.4,72.6c-5.8-10.3,8-39.8,16.5-49.1c4.5-4.9,25.9-19.2,44.7-19.7c9.4-0.4,30.8-2.2,41.1,2.2
		c8,3.1,10.3,12.1,13,12.5c6.7,0.9,4,18.3,2.2,22.8c-5.4,23.2-26.8,39.8-51.8,73.7c-12.1,15.6-31.3,41.5-54.5,72.8l-17.4,23.7
		c-16.5,22.3-33.5,46.5-50.9,71.5h42.9c17,0.4,38,1.3,59.4,2.7c14.7,0.9,29.9,2.2,43.8,3.6c29,3.1,53.2,7.1,60.3,10.3
		c26.8,10.7-6.3,25-16.5,14.7c-0.9-1.8-12.1-8.5-27.7-11.2c-17.9-3.1-40.6-1.8-46-2.2c-18.8-1.8-44.7-2.2-75.5-1.8l-52.7,1.3
		l-3.1,4.9c-9.8,14.7-9.8,25.5-21.4,42.4c-23,36.2-65.8,107.3-89.5,166.2c-8,19.2-14.7,38-19.7,54.5c-9.4,31.3-13.4,54.5-13.8,57.6
		c-3.1,14.3,0.9,20.5-5.4,21c-6.3,0.4-13-1.8-10.7-32.6c0.9-13.4,6.3-40.2,12.5-68.3c8-34.4,17.9-71,24.6-86.7
		c11.2-26.4,21.9-54.9,35.3-86.7c7.1-17,15.2-34.8,24.1-53.6l8-15.6c-30.4,1.8-61.6,4-93.4,6.3c-34.8,2.7-83.5,13.4-115.2,15.6
		c-42.9,3.1-88,5.8-129.1,11.6l-35.3,5.4c-26.8,41.5-37.5,55.8-67.4,100.1c-3.6,5.4-39.3,62.1-63.9,110.8l-23.2,42
		c-17.4,39.3-38,77.3-38.9,107.7c0,3.6-0.4,7.1-0.9,9.8c-1.3,7.6-1.3,8.9-5.4,8c-8-1.8-8-10.3-8-22.8c0-8.9,1.3-36.6,6.7-57.2
		c4.9-23.2,11.2-48.7,19.2-62.1c12.1-19.7,14.3-38.4,20.1-52.7c16.1-36.6,18.8-40.6,23.2-50.5c7.1-17,21-37.1,30.8-52.3
		c13.8-21.9,27.7-44.7,41.1-67.9l-33.1,7.1c-9.4,1.8-35.7,8.5-44.2,9.8c-19.2,2.7-19.7,0.4-36.2,4.5c-29,5.8-55.8,23.2-77.7,22.8
		c-33.5-0.9-44.7-0.4-57.6-8.5c-9.8-6.3-11.2-31.3-2.7-38c7.1-5.4,23.2-34.8,55.4-41.1c8-1.3,21.9-2.7,31.7-3.1
		c23.7-1.3,45.6,5.4,61.2,3.1c46.5-6.7,87.6-10.3,135.8-13.4c13.8-24.6,27.7-49.1,41.5-72.8c11.6-20.1,23.7-39.3,35.7-58.1
		c21-32.2,24.1-37.5,38.9-68.3c11.6-24.6,36.2-63.9,42-67.5c3.1-1.8,17.9-12.5,30.4-14.7c10.7-1.8,29.9,0.4,34.8,0.9
		c11.6,1.3,21.4,11.6,23.7,17.4c0.9,4,4.5,12.1,3.6,22.8c-1.3,11.2-5.8,25-8.9,26.4c-0.9,1.8-34.8,29.5-40.2,35.7
		c-24.6,29-71.9,76.8-92.9,106.3c-17,25-31.7,47.3-44.7,68.3c38-1.8,82.2-3.1,132.2-6.7c59.4-4.5,121.1-5.4,179.6-5.4h42
		c15.2-29,33.1-59.9,54-92.9C790.1,154.8,817.8,100.7,829.4,72.6z"/>
	<path class="st0" d="M1260,390.2c0,3.6-4.9,9.4-11.6,11.6c-8.5,3.1-16.5-2.7-30.4,1.3c-13.4,4-28.1,9.4-43.8,17
		c-17,8-40.2,16.5-57.2,25c-18.3,8.9-35.3,18.3-52.7,27.7c-18.3,9.8-36.6,19.2-56.7,29c-30.8,13.8-50,24.1-75,33.9
		c-12.1,4.5-23.7,5.8-43.3,8c-15.6,1.8-37.5-8-47.8-20.5c-6.7-8.5-14.7-26.8-12.1-41.5c2.7-11.6,8.5-31.3,16.5-44.7
		c11.6-18.8,23.2-33.9,41.5-54c15.6-17,34.4-34.4,54.9-50.5c13.4-11.2,28.6-22.3,44.2-32.6c13.4-8.9,27.2-17.4,39.8-24.1
		c18.3-10.3,37.1-16.5,54.5-21c15.6-4,30.4-6.3,42.4-7.1c17.9-1.3,30.8,1.3,37.1,6.3c7.6,5.4,23.2,19.2,21.9,26.8
		c-1.3,7.1-1.3,23.2-7.1,29.9c-5.4,6.3-16.1,13.4-24.1,16.1c-9.4,4-17.9,7.1-25,8.9c-16.1,4.5-34.4,9.4-55.4,17
		c-11.2,4-22.8,8.9-35.7,14.7c-15.2,6.7-32.6,15.6-49.1,24.1l-50,26.4c-3.1,4-5.8,8.5-8.5,13.4c-8,16.1-16.5,26.4-18.3,37.5
		c-1.3,14.3,6.7,21.9,17,22.3c16.5,0.9,39.3-3.1,68.3-14.3c15.2-6.3,33.9-13.8,53.2-22.3c26.4-11.2,54.5-23.7,81.3-34.8
		c21.9-8.9,42.9-17.4,60.7-23.2c35.7-12.1,45.6-15.6,59-15.6C1253.8,380.8,1260,386.2,1260,390.2z M1101.9,298.2v-3.6
		c-6.7-2.2-15.6-2.2-23.2,0.9c-13.8,5.4-29.5,19.7-42.9,27.2c-18.8,11.2-26.4,20.1-43.3,34.4c-10.3,9.4-18.3,16.1-26.4,25
		c11.6-5.4,31.7-15.2,57.2-28.1l40.2-21.4c15.2-8.5,24.6-14.3,28.1-17.4C1095.6,311.6,1101.9,304.4,1101.9,298.2z"/>
	<path class="st0" d="M1319,877.5c0,7.6-0.9,8-8.5,7.1c-20.5-2.2-20.1-41.1-15.6-79.5c6.3-46.5,30.4-127.3,38-147.4
		c12.5-32.6,29.9-98.3,60.3-152.8c23.7-42,31.3-55.8,42.4-76.4c4.5-8.5,18.3-31.3,18.8-37.1c0.9-9.8-4-12.5-15.6-5.8
		c-17,9.8-39.3,24.6-42.9,27.7c-29,22.3-63.4,46-80.9,59.4c-12.5,9.8-32.6,27.2-50.5,38.9c-22.3,14.7-38.9,25.9-50.9,25.9
		c-30.8,0-47.8-29.5-44.2-50.5c2.7-12.5,2.2-18.3,8.5-32.2c6.7-16.5,19.2-40.2,32.2-55.8c17.4-23.2,46.9-54,57.2-75
		c3.6-8.9,23.2-41.1,39.8-50c7.6-4.5,22.3-16.5,38-15.2c7.6,0.9,25.5,7.6,29.9,12.1c3.1,3.6,5.4,11.2,5.4,18.8
		c0,6.3-2.2,13-2.2,13.8c0,13-50,40.2-59.4,48.7c-20.1,18.8-38.9,46.5-54,69.7c-9.4,14.3-16.1,23.7-16.1,38.4c0,5.8,0,8,11.2,7.6
		c10.7-0.4,40.2-15.2,59.9-28.1c25.9-16.5,40.6-25.5,75.5-51.4c68.8-53.6,131.3-119.3,144.7-130.9c8.5-8.9,27.7-12.1,43.3-8
		c8.9,3.1,24.1,25,22.8,33.1c-1.3,6.7,2.7,20.1-4.9,27.2c-5.8,4.9-25,17-32.6,25.9c-13.8,17.4-40.6,58.5-53.6,83.5
		c-22.8,42.9-61.6,94.3-87.1,143.8c-10.7,21.9-22.3,54-34.4,78.2c-17.9,33.1-59.4,106.8-65.2,150.5c-4.5,30.4-13.8,50.5-13,61.2
		C1315.4,860.1,1319,870.4,1319,877.5z"/>
	<path class="st0" d="M1745.6,525.1c-4.9,6.3-16.1,11.6-25.9,18.3c-10.7,6.7-18.8,13.4-28.6,14.3c-15.2,0.4-28.1-15.2-24.1-42.4
		c4.5-21.4,25-58.5,54.1-61.2c13,0,24.1,4.9,25.9,29.9C1747.4,491.1,1754.1,511.2,1745.6,525.1z M1984.5,13.2
		c13,4.9,21,16.5,22.3,25c0.9,11.6-3.1,27.2-10.3,35.3c-3.1,4.5-6.3,8.9-17.9,17.4c-9.4,6.3-27.7,16.5-33.1,21
		c-21.4,18.3-25.9,18.3-55.8,65.7c-9.8,15.2-40.6,47.3-53.6,68.8c-7.6,12.5-15.2,29.5-22.3,41.1c-8.5,14.3-17.9,39.3-23.7,52.7
		c-4,7.6-6.3,18.3-8.5,25.5c-1.8,5.8-7.1,8-15.2,4.9c-4.5-2.7-0.9-20.5,0.9-37.5c0.4-10.7,8-35.7,22.8-66.1
		c8.9-20.5,15.2-33.5,29-55.4c9.8-14.3,13-28.1,21.4-42c12.1-21,22.8-38.4,29.9-50.5c13.4-19.7,12.5-28.1,21.4-45.1
		c6.7-12.1,14.7-27.2,24.1-38.9c9.4-11.2,21.9-18.3,29.5-21.4C1960,8.3,1973.8,9.6,1984.5,13.2z"/>
</g>
</svg>
