<?xml version="1.0" encoding="UTF-8"?>
<svg width="24px" height="24px" viewBox="0 0 24 24" version="1.1" xmlns="http://www.w3.org/2000/svg" xmlns:xlink="http://www.w3.org/1999/xlink">
    <!-- Generator: Sketch 50.2 (55047) - http://www.bohemiancoding.com/sketch -->
    <title>instagram</title>
    <desc>Created with Sketch.</desc>
    <defs></defs>
    <g id="Page-1" stroke="none" stroke-width="1" fill="none" fill-rule="evenodd">
        <g id="instagram" transform="translate(-8.000000, -8.000000)">
            <rect id="Rectangle-9-Copy" x="0" y="0" width="40" height="40"></rect>
            <g id="Insta" transform="translate(8.000000, 8.000000)" fill="#000000" fill-rule="nonzero">
                <path d="M12.0068038,2.16188825 C15.2150218,2.16188825 15.5944368,2.17629018 16.8567521,2.23229764 C18.0294166,2.28350447 18.6625754,2.48113082 19.0844145,2.64515269 C19.6423306,2.86118149 20.0457592,3.12361649 20.463596,3.54047207 C20.8854351,3.96212829 21.1439816,4.36058141 21.3641063,4.91905588 C21.5281993,5.3407121 21.7251109,5.97839713 21.7771403,7.14575278 C21.8331721,8.41152155 21.8475803,8.79157222 21.8475803,11.9935991 C21.8475803,15.1956261 21.8331721,15.5796773 21.7771403,16.8414456 C21.7259114,18.0136018 21.5281993,18.6464862 21.3641063,19.0681424 C21.1479838,19.6258168 20.8854351,20.0290706 20.4683987,20.4467263 C20.0465597,20.8683825 19.6479338,21.1268169 19.0892172,21.3468462 C18.6673781,21.5108681 18.0294166,21.7076944 16.8615548,21.7597013 C15.5952373,21.8157087 15.2150218,21.8301107 12.0116066,21.8301107 C8.8081913,21.8301107 8.42397357,21.8157087 7.16165827,21.7597013 C5.98899375,21.7084945 5.35583497,21.5108681 4.93399592,21.3468462 C4.37607978,21.1308175 3.97265117,20.8683825 3.55481439,20.4515269 C3.13297534,20.0298706 2.87442884,19.6314176 2.65430411,19.0729431 C2.49021112,18.6512869 2.29329953,18.0136018 2.24127005,16.8462462 C2.1852383,15.5804774 2.17083013,15.2004268 2.17083013,11.9983998 C2.17083013,8.79637287 2.1852383,8.41232165 2.24127005,7.15055342 C2.29249908,5.97839713 2.49021112,5.34551274 2.65430411,4.92385652 C2.87042657,4.36618217 3.13297534,3.9629284 3.55001167,3.54527271 C3.97185071,3.12361649 4.3704766,2.86518203 4.9291932,2.64515269 C5.35103225,2.48113082 5.98899375,2.28430458 7.15685554,2.23229764 C8.41837039,2.17629018 8.79858585,2.16188825 12.0068038,2.16188825 Z M12.0068038,0.000800106115 C8.74735682,0.000800106115 8.33912549,0.0152020265 7.05839975,0.0712094949 C5.78247673,0.127216962 4.90598005,0.333644482 4.14554914,0.628883848 C3.35310009,0.938525141 2.68231998,1.34577944 2.01634259,2.01626884 C1.34556249,2.6819576 0.937331153,3.35244699 0.628356067,4.13975197 C0.332988693,4.90385385 0.126471667,5.77597014 0.0704399159,7.05134019 C0.0144081646,8.33551141 0,8.74356582 0,12.0024004 C0,15.2612349 0.0144081646,15.6684891 0.0704399159,16.9486599 C0.126471667,18.2240299 0.332988693,19.1001467 0.628356067,19.860248 C0.938131606,20.6523536 1.34556249,21.3228431 2.01634259,21.9885319 C2.68231998,22.6542206 3.35310009,23.0670757 4.14074642,23.3719163 C4.90517959,23.6671556 5.77767401,23.8735832 7.05359703,23.9295906 C8.33432277,23.9855981 8.74175365,24 12.0020011,24 C15.2622486,24 15.6696795,23.9855981 16.9504052,23.9295906 C18.2263282,23.8735832 19.1028249,23.6671556 19.8632558,23.3719163 C20.6509021,23.0670757 21.3216823,22.6550207 21.9876597,21.9885319 C22.653637,21.3220429 23.066671,20.6523536 23.3716439,19.8650487 C23.6670112,19.1009468 23.8735283,18.2288306 23.92956,16.9534605 C23.9855918,15.6732898 24,15.2660355 24,12.0072009 C24,8.74836646 23.9855918,8.34111216 23.92956,7.06094147 C23.8735283,5.78557141 23.6670112,4.9094546 23.3716439,4.14935326 C23.0762765,3.35244699 22.6680452,2.6819576 21.9972651,2.01626884 C21.3312877,1.35058007 20.6605076,0.937725027 19.8728612,0.632884384 C19.1084281,0.337645017 18.2359337,0.131217496 16.9600106,0.0752100275 C15.6752826,0.0144019204 15.2670513,0 12.0076043,0 L12.0068038,0.000800106115 Z" id="Shape"></path>
                <path d="M12,6 C8.68734587,6 6,8.68734587 6,12 C6,15.3126541 8.68734587,18 12,18 C15.3126541,18 18,15.3126541 18,12 C18,8.68734587 15.3126541,6 12,6 Z M12,15.8920181 C9.85074626,15.8920181 8.10798183,14.1492537 8.10798183,12 C8.10798183,9.85074628 9.85074626,8.10798183 12,8.10798183 C14.1492537,8.10798183 15.8920181,9.85074628 15.8920181,12 C15.8920181,14.1492537 14.1492537,15.8920181 12,15.8920181 Z" id="Shape"></path>
                <path d="M20,5.49999999 C20,6.32795998 19.3287938,7 18.5,7 C17.6712062,7 17,6.32879377 17,5.49999999 C17,4.67204002 17.6712062,4 18.5,4 C19.3287938,4 20,4.67120622 20,5.49999999 Z" id="Shape"></path>
            </g>
        </g>
    </g>
</svg>