<?xml version="1.0" encoding="UTF-8"?>
<svg width="23px" height="22px" viewBox="0 0 23 22" version="1.1" xmlns="http://www.w3.org/2000/svg" xmlns:xlink="http://www.w3.org/1999/xlink">
    <!-- Generator: Sketch 50.2 (55047) - http://www.bohemiancoding.com/sketch -->
    <title>linkedin</title>
    <desc>Created with Sketch.</desc>
    <defs></defs>
    <g id="Page-1" stroke="none" stroke-width="1" fill="none" fill-rule="evenodd">
        <g id="linkedin" transform="translate(-9.000000, -9.000000)">
            <rect id="Rectangle-9" x="0" y="0" width="40" height="40"></rect>
            <path d="M17.0890599,15.5100123 L21.5658231,15.5100123 L21.5658231,17.8188967 L21.6296659,17.8188967 C22.252565,16.6948346 23.7770283,15.5100123 26.0486255,15.5100123 C30.7738582,15.5100123 31.6478148,18.4690299 31.6478148,22.3186172 L31.6478148,30.1575402 L26.9821113,30.1575402 L26.9821113,23.2083189 C26.9821113,21.5504358 26.9484644,19.4186238 24.5552208,19.4186238 C22.1248793,19.4186238 21.7539006,21.2240672 21.7539006,23.0876667 L21.7539006,30.1575402 L17.0890599,30.1575402 L17.0890599,15.5100123 Z M9.00086274,15.5100123 L13.853781,15.5100123 L13.853781,30.1575402 L9.00086274,30.1575402 L9.00086274,15.5100123 Z M13.853781,11.4416886 C13.853781,12.7896952 12.7675901,13.8833773 11.4268905,13.8833773 C10.086191,13.8833773 9,12.7905632 9,11.4416886 C9,10.0936821 10.086191,9 11.4268905,9 C12.7675901,9 13.853781,10.0928141 13.853781,11.4416886 Z" id="Combined-Shape" fill="#000000" fill-rule="nonzero"></path>
        </g>
    </g>
</svg>