<?xml version="1.0" encoding="UTF-8"?>
<svg width="331px" height="50px" viewBox="0 0 331 50" version="1.1" xmlns="http://www.w3.org/2000/svg" xmlns:xlink="http://www.w3.org/1999/xlink">
    <!-- Generator: Sketch 51 (57462) - http://www.bohemiancoding.com/sketch -->
    <title>Group 13</title>
    <desc>Created with Sketch.</desc>
    <defs></defs>
    <g id="Page-1" stroke="none" stroke-width="1" fill="none" fill-rule="evenodd">
        <g id="Group-13">
            <g id="logo" fill="#000000" fill-rule="nonzero">
                <path d="M22.3175244,5.55940493 L10.7750798,5.55940493 L10.1995563,8.27593234 L20.7188479,8.27593234 L19.5997743,13.8353373 L9.08048271,13.8353373 L8.50495916,16.5834522 L20.367139,16.5834522 L19.2480655,22.1428571 L0,22.1428571 L4.47629429,0 L23.436598,0 L22.3175244,5.55940493 Z M46.0357044,0 L53.901193,0 L49.5527928,22.1428571 L43.0621661,22.1428571 L45.4282073,10.0448339 L38.9695541,19.9949052 L34.141551,19.9949052 L31.6156421,10.0132464 L29.2176273,22.1428571 L22.7270006,22.1428571 L27.0754007,0 L34.9408893,0 L38.2341629,11.5610353 L46.0357044,0 Z M65.1816695,0 L60.7053752,22.1428571 L53.2875161,22.1428571 L57.7638104,0 L65.1816695,0 Z M73.1049254,16.0464642 L82.4411963,16.0464642 L81.1942286,22.1428571 L64.4400986,22.1428571 L68.9163929,0 L76.334252,0 L73.1049254,16.0464642 Z M105,0 L94.4167613,15.3199511 L93.2657142,22.1428571 L85.8478551,22.1428571 L86.9669287,15.4147137 L81.3715608,0 L88.7574464,0 L91.8269054,8.52863257 L97.6141144,0 L105,0 Z" id="Emily-Copy-2"></path>
                <path d="M39.276087,26 C40.9659713,26 42.6241454,26.3810462 44.250659,27.1431499 C45.8771726,27.9052536 47.2079365,28.9195878 48.2429907,30.1861827 L43.4585297,35.3062061 C42.8881938,34.3830946 42.1752845,33.6371028 41.3197806,33.0682085 C40.4642767,32.4993141 39.6035048,32.2148712 38.7374391,32.2148712 C37.7868792,32.2148712 36.9208265,32.4724799 36.139255,32.9877049 C35.3576835,33.50293 34.734548,34.2167207 34.2698299,35.1290984 C33.8051117,36.0414761 33.5727561,37.0558102 33.5727561,38.1721312 C33.5727561,39.5890001 33.9529743,40.7536059 34.7134223,41.6659836 C35.4738702,42.5783613 36.4561007,43.0345434 37.6601432,43.0345434 C38.4628383,43.0345434 39.3500142,42.7930352 40.3216977,42.3100117 C41.2933811,41.8269882 42.1805571,41.1883334 42.9832521,40.3940281 L46.7537876,44.9988291 C45.3807566,46.3942303 43.7806714,47.5051676 41.953484,48.3316745 C40.1262967,49.1581814 38.3572256,49.5714286 36.6462177,49.5714286 C34.5549859,49.5714286 32.7014219,49.1098797 31.0854701,48.1867682 C29.4695182,47.2636566 28.2179665,45.986347 27.3307772,44.354801 C26.443588,42.7232549 26,40.8770595 26,38.8161593 C26,36.4117757 26.5861698,34.2328357 27.758527,32.279274 C28.9308843,30.3257124 30.5309694,28.7907941 32.5588306,27.6744731 C34.5866917,26.5581521 36.8257548,26 39.276087,26 Z M57.0709056,42.8413349 L66.3229757,42.8413349 L65.087254,49.0562061 L48.484224,49.0562061 L52.920148,26.4830211 L60.2711079,26.4830211 L57.0709056,42.8413349 Z M85.011636,49.0562061 L84.441303,45.868267 L76.108102,45.868267 L74.4287882,49.0562061 L66.9510877,49.0562061 L80.005378,26.4830211 L87.546449,26.4830211 L92.901243,49.0562061 L85.011636,49.0562061 Z M78.896397,40.5228338 L83.522433,40.5228338 L82.350081,33.9537471 L78.896397,40.5228338 Z M118.490614,32.9877049 C118.490614,34.984202 118.052307,36.7445279 117.17568,38.2687354 C116.299052,39.7929429 115.036939,40.9736492 113.389302,41.81089 L116.304337,49.0562061 L108.002822,49.0562061 L106.481934,43.1955504 L103.725324,43.1955504 L102.584658,49.0562061 L95.233698,49.0562061 L99.669622,26.4830211 L110.410895,26.4830211 C113.009093,26.4830211 115.005238,27.0465401 116.399393,28.1735949 C117.793547,29.3006497 118.490614,30.905337 118.490614,32.9877049 Z M104.86599,37.5281031 L108.256304,37.5281031 C109.206864,37.5281031 109.962019,37.2221928 110.521794,36.610363 C111.081568,35.9985333 111.361451,35.1881393 111.361451,34.1791569 C111.361451,33.5351256 111.181903,33.0360088 110.822803,32.6817916 C110.463702,32.3275744 109.956745,32.1504684 109.301914,32.1504684 L105.911601,32.1504684 L104.86599,37.5281031 Z M146,26.4830211 L136.177597,35.85363 L141.785872,49.0562061 L133.262561,49.0562061 L130.220784,41.4888759 L127.305749,44.2903982 L126.355193,49.0562061 L119.004234,49.0562061 L123.440158,26.4830211 L130.791118,26.4830211 L129.175174,34.6943794 L137.254893,26.4830211 L146,26.4830211 Z" id="Clark-Copy-2"></path>
            </g>
            <text id="Web-Designer" font-family="Montserrat-BoldItalic, Montserrat" font-size="18" font-style="italic" font-weight="bold" letter-spacing="1.10000002" fill="#908600">
                <tspan x="174" y="32">WEB DESIGNE</tspan>
                <tspan x="317.68" y="32">R</tspan>
            </text>
            <path d="M171.5,0.5 L152.5,49.5" id="Line" stroke="#908600" stroke-linecap="square"></path>
        </g>
    </g>
</svg>