<?xml version="1.0" encoding="UTF-8"?>
<svg width="15px" height="11px" viewBox="0 0 15 11" version="1.1" xmlns="http://www.w3.org/2000/svg" xmlns:xlink="http://www.w3.org/1999/xlink">
    <!-- Generator: Sketch 50.2 (55047) - http://www.bohemiancoding.com/sketch -->
    <title>noun_Arrow Right_1561802 Copy</title>
    <desc>Created with Sketch.</desc>
    <defs></defs>
    <g id="Page-1" stroke="none" stroke-width="1" fill="none" fill-rule="evenodd">
        <g id="Desktop-HD-Copy" transform="translate(-969.000000, -2402.000000)" fill="#FFFFFF" fill-rule="nonzero">
            <g id="noun_Arrow-Right_1561802-Copy" transform="translate(969.000000, 2402.000000)">
                <path d="M14.9691549,5.42854988 L9.47049296,0.0302807474 C9.4506338,0.0107849237 9.42380282,0 9.39570423,0 C9.36760563,0 9.34056338,0.0109923261 9.32091549,0.0304881498 L8.12471831,1.20832626 C8.12176056,1.2112299 8.11901408,1.21434093 8.11626761,1.21745197 C8.08119718,1.26059166 8.08647887,1.32281238 8.12852113,1.35973 C8.13126761,1.36201143 8.13401408,1.36429285 8.13697183,1.36636688 L11.3135915,4.48507646 L0.105633803,4.48507646 C0.0473239437,4.48507646 0,4.53153459 0,4.58877765 L0,6.41433339 C0,6.47157645 0.0473239437,6.51803458 0.105633803,6.51803458 L11.3127465,6.51803458 L8.12408451,9.64773649 C8.10422535,9.66723231 8.09323944,9.69357241 8.09323944,9.72115693 C8.09323944,9.74874144 8.10443662,9.77508155 8.12408451,9.79457737 L9.32112676,10.9697193 C9.34183099,10.9900447 9.36887324,11 9.39591549,11 C9.42295775,11 9.45,10.9898373 9.47070423,10.9697193 L14.9691549,5.57539076 C14.9890141,5.55589494 15,5.52955484 15,5.50197032 C15,5.47438581 14.9888028,5.4480457 14.9691549,5.42854988 Z" id="Shape"></path>
            </g>
        </g>
    </g>
</svg>